# xmcd CD database file
#
# Track frame offsets:
#	150
#	26787
#	49687
#	74255
#	94712
#	115014
#	135767
#	161924
#	184534
#	209942
#	231357
#	254684
#	275714
#	302217
#
# Disc length: 4300 seconds
#
# Revision: 0
# Processed by: cddbd v1.5.1PL2 Copyright (c) Steve Scherf et al.
# Submitted via: CDex 1.51
#
DISCID=d110ca0e
DTITLE=Mr.Children - Mr.Children 1992-1995
DYEAR=2001
DGENRE=JPop
TTITLE0=君がいた夏
TTITLE1=星になれたら
TTITLE2=抱きしめたい
TTITLE3=Replay
TTITLE4=my life
TTITLE5=CROSS ROAD
TTITLE6=innocent world
TTITLE7=Dance Dance Dance
TTITLE8=雨のち晴れ
TTITLE9=Over
TTITLE10=Tomorrow never knows
TTITLE11=everybody goes ― 秩序のない現代にドロップキック
TTITLE12=【es】〜Theme of es〜
TTITLE13=シーソーゲーム〜勇敢な恋の歌〜
EXTD=YEAR: 2001
EXTT0=
EXTT1=
EXTT2=
EXTT3=
EXTT4=
EXTT5=
EXTT6=
EXTT7=
EXTT8=
EXTT9=
EXTT10=
EXTT11=
EXTT12=
EXTT13=
PLAYORDER=
